<svg xmlns="http://www.w3.org/2000/svg" width="600" height="400"><path d="M271,189L335,202L321,131Z" fill="rgb(218,42,101)" stroke="rgb(218,42,101)" stroke-width="1.51"/><path d="M321,131L290,107L271,189Z" fill="rgb(205,40,97)" stroke="rgb(205,40,97)" stroke-width="1.51"/><path d="M271,189L273,266L335,202Z" fill="rgb(226,52,105)" stroke="rgb(226,52,105)" stroke-width="1.51"/><path d="M273,266L352,267L335,202Z" fill="rgb(224,77,115)" stroke="rgb(224,77,115)" stroke-width="1.51"/><path d="M422,115L345,58L321,131Z" fill="rgb(186,68,105)" stroke="rgb(186,68,105)" stroke-width="1.51"/><path d="M321,131L345,58L290,107Z" fill="rgb(188,52,97)" stroke="rgb(188,52,97)" stroke-width="1.51"/><path d="M422,115L321,131L335,202Z" fill="rgb(205,67,107)" stroke="rgb(205,67,107)" stroke-width="1.51"/><path d="M436,210L422,115L335,202Z" fill="rgb(214,80,115)" stroke="rgb(214,80,115)" stroke-width="1.51"/><path d="M290,107L196,110L271,189Z" fill="rgb(191,43,95)" stroke="rgb(191,43,95)" stroke-width="1.51"/><path d="M271,189L178,193L273,266Z" fill="rgb(212,52,102)" stroke="rgb(212,52,102)" stroke-width="1.51"/><path d="M188,71L196,110L290,107Z" fill="rgb(169,46,91)" stroke="rgb(169,46,91)" stroke-width="1.51"/><path d="M196,110L178,193L271,189Z" fill="rgb(193,43,95)" stroke="rgb(193,43,95)" stroke-width="1.51"/><path d="M400,269L436,210L335,202Z" fill="rgb(221,91,122)" stroke="rgb(221,91,122)" stroke-width="1.51"/><path d="M410,323L400,269L352,267Z" fill="rgb(214,116,136)" stroke="rgb(214,116,136)" stroke-width="1.51"/><path d="M352,267L400,269L335,202Z" fill="rgb(221,92,122)" stroke="rgb(221,92,122)" stroke-width="1.51"/><path d="M345,58L286,30L290,107Z" fill="rgb(176,48,93)" stroke="rgb(176,48,93)" stroke-width="1.51"/><path d="M286,30L188,71L290,107Z" fill="rgb(166,46,91)" stroke="rgb(166,46,91)" stroke-width="1.51"/><path d="M130,124L130,179L178,193Z" fill="rgb(175,45,92)" stroke="rgb(175,45,92)" stroke-width="1.51"/><path d="M178,193L180,272L273,266Z" fill="rgb(201,69,107)" stroke="rgb(201,69,107)" stroke-width="1.51"/><path d="M273,266L346,374L352,267Z" fill="rgb(217,105,130)" stroke="rgb(217,105,130)" stroke-width="1.51"/><path d="M345,58L325,-10L286,30Z" fill="rgb(160,54,93)" stroke="rgb(160,54,93)" stroke-width="1.51"/><path d="M422,115L392,30L345,58Z" fill="rgb(171,75,106)" stroke="rgb(171,75,106)" stroke-width="1.51"/><path d="M180,272L241,327L273,266Z" fill="rgb(202,91,119)" stroke="rgb(202,91,119)" stroke-width="1.51"/><path d="M178,193L130,179L180,272Z" fill="rgb(192,53,99)" stroke="rgb(192,53,99)" stroke-width="1.51"/><path d="M130,124L178,193L196,110Z" fill="rgb(172,46,92)" stroke="rgb(172,46,92)" stroke-width="1.51"/><path d="M286,30L190,-17L188,71Z" fill="rgb(142,48,86)" stroke="rgb(142,48,86)" stroke-width="1.51"/><path d="M392,30L325,-10L345,58Z" fill="rgb(157,65,98)" stroke="rgb(157,65,98)" stroke-width="1.51"/><path d="M346,374L410,323L352,267Z" fill="rgb(210,126,142)" stroke="rgb(210,126,142)" stroke-width="1.51"/><path d="M400,269L468,265L436,210Z" fill="rgb(215,114,134)" stroke="rgb(215,114,134)" stroke-width="1.51"/><path d="M188,71L130,124L196,110Z" fill="rgb(157,47,90)" stroke="rgb(157,47,90)" stroke-width="1.51"/><path d="M410,323L468,265L400,269Z" fill="rgb(210,127,142)" stroke="rgb(210,127,142)" stroke-width="1.51"/><path d="M436,210L500,195L422,115Z" fill="rgb(208,98,124)" stroke="rgb(208,98,124)" stroke-width="1.51"/><path d="M325,-10L268,-16L286,30Z" fill="rgb(150,47,88)" stroke="rgb(150,47,88)" stroke-width="1.51"/><path d="M188,71L104,39L130,124Z" fill="rgb(141,48,87)" stroke="rgb(141,48,87)" stroke-width="1.51"/><path d="M468,265L500,195L436,210Z" fill="rgb(215,113,134)" stroke="rgb(215,113,134)" stroke-width="1.51"/><path d="M422,115L507,54L392,30Z" fill="rgb(166,90,115)" stroke="rgb(166,90,115)" stroke-width="1.51"/><path d="M241,327L346,374L273,266Z" fill="rgb(213,107,130)" stroke="rgb(213,107,130)" stroke-width="1.51"/><path d="M180,272L196,336L241,327Z" fill="rgb(192,100,124)" stroke="rgb(192,100,124)" stroke-width="1.51"/><path d="M119,352L196,336L180,272Z" fill="rgb(180,102,125)" stroke="rgb(180,102,125)" stroke-width="1.51"/><path d="M243,414L346,374L241,327Z" fill="rgb(203,126,142)" stroke="rgb(203,126,142)" stroke-width="1.51"/><path d="M392,30L390,-24L325,-10Z" fill="rgb(146,69,99)" stroke="rgb(146,69,99)" stroke-width="1.51"/><path d="M325,-10L318,-77L268,-16Z" fill="rgb(151,48,89)" stroke="rgb(151,48,89)" stroke-width="1.51"/><path d="M513,-20L390,-24L392,30Z" fill="rgb(140,84,109)" stroke="rgb(140,84,109)" stroke-width="1.51"/><path d="M500,195L511,106L422,115Z" fill="rgb(192,103,126)" stroke="rgb(192,103,126)" stroke-width="1.51"/><path d="M266,-109L190,-17L268,-16Z" fill="rgb(136,48,86)" stroke="rgb(136,48,86)" stroke-width="1.51"/><path d="M268,-16L190,-17L286,30Z" fill="rgb(138,48,86)" stroke="rgb(138,48,86)" stroke-width="1.51"/><path d="M511,106L507,54L422,115Z" fill="rgb(172,101,123)" stroke="rgb(172,101,123)" stroke-width="1.51"/><path d="M579,278L579,185L500,195Z" fill="rgb(207,133,147)" stroke="rgb(207,133,147)" stroke-width="1.51"/><path d="M410,323L467,339L468,265Z" fill="rgb(203,141,152)" stroke="rgb(203,141,152)" stroke-width="1.51"/><path d="M418,440L467,339L410,323Z" fill="rgb(194,157,165)" stroke="rgb(194,157,165)" stroke-width="1.51"/><path d="M190,-17L104,39L188,71Z" fill="rgb(128,47,85)" stroke="rgb(128,47,85)" stroke-width="1.51"/><path d="M38,197L85,272L130,179Z" fill="rgb(171,55,96)" stroke="rgb(171,55,96)" stroke-width="1.51"/><path d="M130,179L85,272L180,272Z" fill="rgb(181,68,104)" stroke="rgb(181,68,104)" stroke-width="1.51"/><path d="M38,197L130,179L130,124Z" fill="rgb(164,46,90)" stroke="rgb(164,46,90)" stroke-width="1.51"/><path d="M390,-24L318,-77L325,-10Z" fill="rgb(148,61,95)" stroke="rgb(148,61,95)" stroke-width="1.51"/><path d="M396,-127L318,-77L390,-24Z" fill="rgb(146,68,99)" stroke="rgb(146,68,99)" stroke-width="1.51"/><path d="M196,336L243,414L241,327Z" fill="rgb(191,119,137)" stroke="rgb(191,119,137)" stroke-width="1.51"/><path d="M346,374L418,440L410,323Z" fill="rgb(197,152,161)" stroke="rgb(197,152,161)" stroke-width="1.51"/><path d="M179,412L243,414L196,336Z" fill="rgb(180,128,143)" stroke="rgb(180,128,143)" stroke-width="1.51"/><path d="M85,272L119,352L180,272Z" fill="rgb(173,93,118)" stroke="rgb(173,93,118)" stroke-width="1.51"/><path d="M33,99L38,197L130,124Z" fill="rgb(145,48,88)" stroke="rgb(145,48,88)" stroke-width="1.51"/><path d="M190,-17L107,-2L104,39Z" fill="rgb(112,47,82)" stroke="rgb(112,47,82)" stroke-width="1.51"/><path d="M178,-98L107,-2L190,-17Z" fill="rgb(116,47,82)" stroke="rgb(116,47,82)" stroke-width="1.51"/><path d="M500,195L579,185L511,106Z" fill="rgb(197,118,136)" stroke="rgb(197,118,136)" stroke-width="1.51"/><path d="M511,106L579,117L507,54Z" fill="rgb(166,113,132)" stroke="rgb(166,113,132)" stroke-width="1.51"/><path d="M579,278L500,195L468,265Z" fill="rgb(206,134,148)" stroke="rgb(206,134,148)" stroke-width="1.51"/><path d="M85,272L38,323L119,352Z" fill="rgb(157,97,120)" stroke="rgb(157,97,120)" stroke-width="1.51"/><path d="M33,99L130,124L104,39Z" fill="rgb(131,48,85)" stroke="rgb(131,48,85)" stroke-width="1.51"/><path d="M119,352L179,412L196,336Z" fill="rgb(172,119,136)" stroke="rgb(172,119,136)" stroke-width="1.51"/><path d="M579,185L579,117L511,106Z" fill="rgb(183,123,139)" stroke="rgb(183,123,139)" stroke-width="1.51"/><path d="M507,54L513,-20L392,30Z" fill="rgb(144,95,117)" stroke="rgb(144,95,117)" stroke-width="1.51"/><path d="M545,0L513,-20L507,54Z" fill="rgb(133,105,125)" stroke="rgb(133,105,125)" stroke-width="1.51"/><path d="M318,-77L266,-109L268,-16Z" fill="rgb(147,47,88)" stroke="rgb(147,47,88)" stroke-width="1.51"/><path d="M396,-127L266,-109L318,-77Z" fill="rgb(149,56,92)" stroke="rgb(149,56,92)" stroke-width="1.51"/><path d="M243,414L317,453L346,374Z" fill="rgb(205,138,151)" stroke="rgb(205,138,151)" stroke-width="1.51"/><path d="M271,484L317,453L243,414Z" fill="rgb(198,136,149)" stroke="rgb(198,136,149)" stroke-width="1.51"/><path d="M12,54L33,99L104,39Z" fill="rgb(113,47,82)" stroke="rgb(113,47,82)" stroke-width="1.51"/><path d="M579,117L559,24L507,54Z" fill="rgb(153,115,133)" stroke="rgb(153,115,133)" stroke-width="1.51"/><path d="M38,197L31,258L85,272Z" fill="rgb(159,67,100)" stroke="rgb(159,67,100)" stroke-width="1.51"/><path d="M-19,207L31,258L38,197Z" fill="rgb(154,58,94)" stroke="rgb(154,58,94)" stroke-width="1.51"/><path d="M317,453L418,440L346,374Z" fill="rgb(197,152,161)" stroke="rgb(197,152,161)" stroke-width="1.51"/><path d="M467,339L579,278L468,265Z" fill="rgb(199,148,158)" stroke="rgb(199,148,158)" stroke-width="1.51"/><path d="M572,340L579,278L467,339Z" fill="rgb(188,165,171)" stroke="rgb(188,165,171)" stroke-width="1.51"/><path d="M559,24L545,0L507,54Z" fill="rgb(137,110,128)" stroke="rgb(137,110,128)" stroke-width="1.51"/><path d="M213,498L271,484L243,414Z" fill="rgb(188,135,148)" stroke="rgb(188,135,148)" stroke-width="1.51"/><path d="M119,352L131,404L179,412Z" fill="rgb(161,126,141)" stroke="rgb(161,126,141)" stroke-width="1.51"/><path d="M46,416L131,404L119,352Z" fill="rgb(147,123,139)" stroke="rgb(147,123,139)" stroke-width="1.51"/><path d="M266,-109L178,-98L190,-17Z" fill="rgb(129,48,85)" stroke="rgb(129,48,85)" stroke-width="1.51"/><path d="M503,-80L390,-24L513,-20Z" fill="rgb(135,93,115)" stroke="rgb(135,93,115)" stroke-width="1.51"/><path d="M503,-80L396,-127L390,-24Z" fill="rgb(140,84,109)" stroke="rgb(140,84,109)" stroke-width="1.51"/><path d="M266,-109L133,-121L178,-98Z" fill="rgb(124,48,84)" stroke="rgb(124,48,84)" stroke-width="1.51"/><path d="M31,258L38,323L85,272Z" fill="rgb(154,85,110)" stroke="rgb(154,85,110)" stroke-width="1.51"/><path d="M501,423L572,340L467,339Z" fill="rgb(180,175,179)" stroke="rgb(180,175,179)" stroke-width="1.51"/><path d="M317,453L395,492L418,440Z" fill="rgb(194,155,164)" stroke="rgb(194,155,164)" stroke-width="1.51"/><path d="M213,498L243,414L179,412Z" fill="rgb(179,133,147)" stroke="rgb(179,133,147)" stroke-width="1.51"/><path d="M589,-114L503,-80L545,0Z" fill="rgb(124,110,128)" stroke="rgb(124,110,128)" stroke-width="1.51"/><path d="M545,0L503,-80L513,-20Z" fill="rgb(128,104,124)" stroke="rgb(128,104,124)" stroke-width="1.51"/><path d="M418,440L501,423L467,339Z" fill="rgb(180,174,179)" stroke="rgb(180,174,179)" stroke-width="1.51"/><path d="M504,493L501,423L418,440Z" fill="rgb(178,177,181)" stroke="rgb(178,177,181)" stroke-width="1.51"/><path d="M-20,104L-19,207L38,197Z" fill="rgb(140,48,86)" stroke="rgb(140,48,86)" stroke-width="1.51"/><path d="M44,-26L12,54L104,39Z" fill="rgb(97,46,80)" stroke="rgb(97,46,80)" stroke-width="1.51"/><path d="M44,-26L104,39L107,-2Z" fill="rgb(98,46,79)" stroke="rgb(98,46,79)" stroke-width="1.51"/><path d="M31,258L-39,285L38,323Z" fill="rgb(142,85,110)" stroke="rgb(142,85,110)" stroke-width="1.51"/><path d="M-20,104L38,197L33,99Z" fill="rgb(130,48,85)" stroke="rgb(130,48,85)" stroke-width="1.51"/><path d="M133,-121L44,-26L107,-2Z" fill="rgb(99,46,80)" stroke="rgb(99,46,80)" stroke-width="1.51"/><path d="M359,507L395,492L317,453Z" fill="rgb(197,151,160)" stroke="rgb(197,151,160)" stroke-width="1.51"/><path d="M12,54L-20,104L33,99Z" fill="rgb(110,47,82)" stroke="rgb(110,47,82)" stroke-width="1.51"/><path d="M-45,26L-20,104L12,54Z" fill="rgb(99,46,80)" stroke="rgb(99,46,80)" stroke-width="1.51"/><path d="M396,-127L133,-121L266,-109Z" fill="rgb(143,48,87)" stroke="rgb(143,48,87)" stroke-width="1.51"/><path d="M178,-98L133,-121L107,-2Z" fill="rgb(111,47,82)" stroke="rgb(111,47,82)" stroke-width="1.51"/><path d="M271,484L359,507L317,453Z" fill="rgb(203,141,153)" stroke="rgb(203,141,153)" stroke-width="1.51"/><path d="M271,484L213,498L359,507Z" fill="rgb(199,137,149)" stroke="rgb(199,137,149)" stroke-width="1.51"/><path d="M115,518L213,498L179,412Z" fill="rgb(166,131,145)" stroke="rgb(166,131,145)" stroke-width="1.51"/><path d="M115,518L179,412L131,404Z" fill="rgb(158,129,144)" stroke="rgb(158,129,144)" stroke-width="1.51"/><path d="M579,117L655,22L559,24Z" fill="rgb(140,125,141)" stroke="rgb(140,125,141)" stroke-width="1.51"/><path d="M559,24L648,-46L545,0Z" fill="rgb(117,117,135)" stroke="rgb(117,117,135)" stroke-width="1.51"/><path d="M579,185L654,149L579,117Z" fill="rgb(183,134,147)" stroke="rgb(183,134,147)" stroke-width="1.51"/><path d="M663,185L654,149L579,185Z" fill="rgb(193,136,149)" stroke="rgb(193,136,149)" stroke-width="1.51"/><path d="M663,185L579,185L579,278Z" fill="rgb(202,143,155)" stroke="rgb(202,143,155)" stroke-width="1.51"/><path d="M695,223L663,185L579,278Z" fill="rgb(199,148,158)" stroke="rgb(199,148,158)" stroke-width="1.51"/><path d="M504,493L418,440L395,492Z" fill="rgb(184,169,175)" stroke="rgb(184,169,175)" stroke-width="1.51"/><path d="M504,493L535,446L501,423Z" fill="rgb(170,186,188)" stroke="rgb(170,186,188)" stroke-width="1.51"/><path d="M501,423L535,446L572,340Z" fill="rgb(164,191,192)" stroke="rgb(164,191,192)" stroke-width="1.51"/><path d="M572,340L662,303L579,278Z" fill="rgb(180,174,179)" stroke="rgb(180,174,179)" stroke-width="1.51"/><path d="M38,323L46,416L119,352Z" fill="rgb(144,113,131)" stroke="rgb(144,113,131)" stroke-width="1.51"/><path d="M-17,343L46,416L38,323Z" fill="rgb(132,110,129)" stroke="rgb(132,110,129)" stroke-width="1.51"/><path d="M-19,207L-39,285L31,258Z" fill="rgb(146,70,100)" stroke="rgb(146,70,100)" stroke-width="1.51"/><path d="M-117,182L-39,285L-19,207Z" fill="rgb(149,59,94)" stroke="rgb(149,59,94)" stroke-width="1.51"/><path d="M-39,285L-17,343L38,323Z" fill="rgb(134,95,116)" stroke="rgb(134,95,116)" stroke-width="1.51"/><path d="M535,446L618,375L572,340Z" fill="rgb(160,195,196)" stroke="rgb(160,195,196)" stroke-width="1.51"/><path d="M713,36L655,22L654,149Z" fill="rgb(147,127,142)" stroke="rgb(147,127,142)" stroke-width="1.51"/><path d="M654,149L655,22L579,117Z" fill="rgb(159,129,144)" stroke="rgb(159,129,144)" stroke-width="1.51"/><path d="M535,446L621,450L618,375Z" fill="rgb(150,202,202)" stroke="rgb(150,202,202)" stroke-width="1.51"/><path d="M359,507L504,493L395,492Z" fill="rgb(188,165,171)" stroke="rgb(188,165,171)" stroke-width="1.51"/><path d="M618,375L662,303L572,340Z" fill="rgb(171,185,187)" stroke="rgb(171,185,187)" stroke-width="1.51"/><path d="M-20,104L-117,182L-19,207Z" fill="rgb(138,47,86)" stroke="rgb(138,47,86)" stroke-width="1.51"/><path d="M44,-26L-45,26L12,54Z" fill="rgb(83,45,77)" stroke="rgb(83,45,77)" stroke-width="1.51"/><path d="M-48,-43L-45,26L44,-26Z" fill="rgb(75,44,76)" stroke="rgb(75,44,76)" stroke-width="1.51"/><path d="M133,-121L38,-104L44,-26Z" fill="rgb(94,46,79)" stroke="rgb(94,46,79)" stroke-width="1.51"/><path d="M663,185L723,128L654,149Z" fill="rgb(185,134,147)" stroke="rgb(185,134,147)" stroke-width="1.51"/><path d="M662,303L695,223L579,278Z" fill="rgb(191,161,168)" stroke="rgb(191,161,168)" stroke-width="1.51"/><path d="M46,416L115,518L131,404Z" fill="rgb(145,127,142)" stroke="rgb(145,127,142)" stroke-width="1.51"/><path d="M213,498L115,518L359,507Z" fill="rgb(184,134,147)" stroke="rgb(184,134,147)" stroke-width="1.51"/><path d="M18,482L115,518L46,416Z" fill="rgb(133,125,140)" stroke="rgb(133,125,140)" stroke-width="1.51"/><path d="M662,303L695,270L695,223Z" fill="rgb(191,161,168)" stroke="rgb(191,161,168)" stroke-width="1.51"/><path d="M702,364L695,270L662,303Z" fill="rgb(179,176,180)" stroke="rgb(179,176,180)" stroke-width="1.51"/><path d="M618,-91L589,-114L545,0Z" fill="rgb(117,117,135)" stroke="rgb(117,117,135)" stroke-width="1.51"/><path d="M503,-80L589,-114L396,-127Z" fill="rgb(132,99,120)" stroke="rgb(132,99,120)" stroke-width="1.51"/><path d="M655,22L648,-46L559,24Z" fill="rgb(114,121,137)" stroke="rgb(114,121,137)" stroke-width="1.51"/><path d="M739,-35L648,-46L655,22Z" fill="rgb(114,121,137)" stroke="rgb(114,121,137)" stroke-width="1.51"/><path d="M648,-46L618,-91L545,0Z" fill="rgb(114,121,137)" stroke="rgb(114,121,137)" stroke-width="1.51"/><path d="M-32,-84L-48,-43L44,-26Z" fill="rgb(75,44,76)" stroke="rgb(75,44,76)" stroke-width="1.51"/><path d="M-45,26L-112,120L-20,104Z" fill="rgb(107,47,81)" stroke="rgb(107,47,81)" stroke-width="1.51"/><path d="M695,223L723,128L663,185Z" fill="rgb(195,136,149)" stroke="rgb(195,136,149)" stroke-width="1.51"/><path d="M695,270L723,128L695,223Z" fill="rgb(204,140,152)" stroke="rgb(204,140,152)" stroke-width="1.51"/><path d="M558,510L621,450L535,446Z" fill="rgb(155,198,198)" stroke="rgb(155,198,198)" stroke-width="1.51"/><path d="M618,375L702,364L662,303Z" fill="rgb(168,187,189)" stroke="rgb(168,187,189)" stroke-width="1.51"/><path d="M504,493L558,510L535,446Z" fill="rgb(165,190,191)" stroke="rgb(165,190,191)" stroke-width="1.51"/><path d="M359,507L558,510L504,493Z" fill="rgb(178,177,181)" stroke="rgb(178,177,181)" stroke-width="1.51"/><path d="M656,528L558,510L359,507Z" fill="rgb(167,188,190)" stroke="rgb(167,188,190)" stroke-width="1.51"/><path d="M-141,63L-112,120L-45,26Z" fill="rgb(102,47,80)" stroke="rgb(102,47,80)" stroke-width="1.51"/><path d="M-39,285L-113,296L-17,343Z" fill="rgb(136,91,114)" stroke="rgb(136,91,114)" stroke-width="1.51"/><path d="M-127,0L-141,63L-45,26Z" fill="rgb(87,45,78)" stroke="rgb(87,45,78)" stroke-width="1.51"/><path d="M38,-104L-32,-84L44,-26Z" fill="rgb(80,45,77)" stroke="rgb(80,45,77)" stroke-width="1.51"/><path d="M-112,120L-117,182L-20,104Z" fill="rgb(127,47,84)" stroke="rgb(127,47,84)" stroke-width="1.51"/><path d="M-45,440L46,416L-17,343Z" fill="rgb(114,121,137)" stroke="rgb(114,121,137)" stroke-width="1.51"/><path d="M-45,440L18,482L46,416Z" fill="rgb(116,121,138)" stroke="rgb(116,121,138)" stroke-width="1.51"/><path d="M648,-46L716,-104L618,-91Z" fill="rgb(114,121,137)" stroke="rgb(114,121,137)" stroke-width="1.51"/><path d="M723,128L713,36L654,149Z" fill="rgb(163,130,144)" stroke="rgb(163,130,144)" stroke-width="1.51"/><path d="M708,433L702,364L618,375Z" fill="rgb(151,201,201)" stroke="rgb(151,201,201)" stroke-width="1.51"/><path d="M695,270L702,364L723,128Z" fill="rgb(194,157,164)" stroke="rgb(194,157,164)" stroke-width="1.51"/><path d="M-117,182L-113,296L-39,285Z" fill="rgb(145,72,101)" stroke="rgb(145,72,101)" stroke-width="1.51"/><path d="M-90,440L-45,440L-17,343Z" fill="rgb(114,121,137)" stroke="rgb(114,121,137)" stroke-width="1.51"/><path d="M-45,440L-36,478L18,482Z" fill="rgb(114,121,137)" stroke="rgb(114,121,137)" stroke-width="1.51"/><path d="M18,482L-112,505L115,518Z" fill="rgb(116,121,138)" stroke="rgb(116,121,138)" stroke-width="1.51"/><path d="M-90,440L-36,478L-45,440Z" fill="rgb(114,121,137)" stroke="rgb(114,121,137)" stroke-width="1.51"/><path d="M-112,120L-141,63L-117,182Z" fill="rgb(122,47,83)" stroke="rgb(122,47,83)" stroke-width="1.51"/><path d="M-117,182L-132,370L-113,296Z" fill="rgb(141,82,108)" stroke="rgb(141,82,108)" stroke-width="1.51"/><path d="M-127,0L-45,26L-48,-43Z" fill="rgb(75,44,76)" stroke="rgb(75,44,76)" stroke-width="1.51"/><path d="M-107,-116L-127,0L-48,-43Z" fill="rgb(75,44,76)" stroke="rgb(75,44,76)" stroke-width="1.51"/><path d="M713,36L739,-35L655,22Z" fill="rgb(117,122,138)" stroke="rgb(117,122,138)" stroke-width="1.51"/><path d="M618,-91L716,-104L589,-114Z" fill="rgb(114,121,137)" stroke="rgb(114,121,137)" stroke-width="1.51"/><path d="M723,128L739,-35L713,36Z" fill="rgb(134,125,140)" stroke="rgb(134,125,140)" stroke-width="1.51"/><path d="M708,433L739,-35L723,128Z" fill="rgb(194,136,149)" stroke="rgb(194,136,149)" stroke-width="1.51"/><path d="M702,364L708,433L723,128Z" fill="rgb(180,174,179)" stroke="rgb(180,174,179)" stroke-width="1.51"/><path d="M621,450L708,433L618,375Z" fill="rgb(147,204,204)" stroke="rgb(147,204,204)" stroke-width="1.51"/><path d="M705,500L708,433L621,450Z" fill="rgb(147,204,204)" stroke="rgb(147,204,204)" stroke-width="1.51"/><path d="M-132,370L-90,440L-17,343Z" fill="rgb(118,116,133)" stroke="rgb(118,116,133)" stroke-width="1.51"/><path d="M-113,296L-132,370L-17,343Z" fill="rgb(131,101,121)" stroke="rgb(131,101,121)" stroke-width="1.51"/><path d="M-141,63L-132,370L-117,182Z" fill="rgb(151,50,89)" stroke="rgb(151,50,89)" stroke-width="1.51"/><path d="M739,-35L716,-104L648,-46Z" fill="rgb(114,121,137)" stroke="rgb(114,121,137)" stroke-width="1.51"/><path d="M115,518L656,528L359,507Z" fill="rgb(194,155,164)" stroke="rgb(194,155,164)" stroke-width="1.51"/><path d="M558,510L656,528L621,450Z" fill="rgb(147,204,204)" stroke="rgb(147,204,204)" stroke-width="1.51"/><path d="M-32,-84L-107,-116L-48,-43Z" fill="rgb(75,44,76)" stroke="rgb(75,44,76)" stroke-width="1.51"/><path d="M-127,0L-107,-116L-141,63Z" fill="rgb(75,44,76)" stroke="rgb(75,44,76)" stroke-width="1.51"/><path d="M38,-104L-107,-116L-32,-84Z" fill="rgb(75,44,76)" stroke="rgb(75,44,76)" stroke-width="1.51"/><path d="M133,-121L-107,-116L38,-104Z" fill="rgb(81,45,77)" stroke="rgb(81,45,77)" stroke-width="1.51"/><path d="M396,-127L-107,-116L133,-121Z" fill="rgb(111,47,82)" stroke="rgb(111,47,82)" stroke-width="1.51"/><path d="M656,528L705,500L621,450Z" fill="rgb(147,204,204)" stroke="rgb(147,204,204)" stroke-width="1.51"/><path d="M708,433L705,500L739,-35Z" fill="rgb(183,172,177)" stroke="rgb(183,172,177)" stroke-width="1.51"/><path d="M-132,370L-112,505L-90,440Z" fill="rgb(114,121,137)" stroke="rgb(114,121,137)" stroke-width="1.51"/><path d="M-90,440L-112,505L-36,478Z" fill="rgb(114,121,137)" stroke="rgb(114,121,137)" stroke-width="1.51"/><path d="M-36,478L-112,505L18,482Z" fill="rgb(114,121,137)" stroke="rgb(114,121,137)" stroke-width="1.51"/></svg>